<svg xmlns="http://www.w3.org/2000/svg" viewBox="0 0 760 470" width="760" height="470">

  
  <rect width="760" height="470" rx="18" fill="#2A2D34"></rect>
  <rect width="760" height="470" rx="18" fill="none" stroke="#D4A843" stroke-opacity=".3" stroke-width="1"></rect>

  
  <text x="380" y="36" text-anchor="middle" font-family="Georgia, serif" font-size="18" fill="#F5F0E8" letter-spacing=".04em">Plan de salle</text>
  <text x="380" y="53" text-anchor="middle" font-family="system-ui, sans-serif" font-size="10.5" fill="#F5F0E8" opacity=".5" letter-spacing=".08em">LE PHOSPHORE · SALLE DE SPECTACLE</text>
  <line x1="60" y1="64" x2="700" y2="64" stroke="#D4A843" stroke-opacity=".22" stroke-width="1"></line>

  
  <rect x="210" y="76" width="340" height="46" rx="8" fill="#6B1D3A"></rect>
  <text x="380" y="106" text-anchor="middle" font-family="Georgia, serif" font-size="15" fill="#D4A843" letter-spacing=".12em">SCÈNE</text>

  
  <rect x="148" y="136" width="134" height="36" rx="7" fill="#D4A843"></rect>
  <text x="215" y="159" text-anchor="middle" font-family="system-ui, sans-serif" font-size="10.5" font-weight="600" fill="#2A2D34" letter-spacing=".03em">PMR · 2 empl.</text>

  
  <rect x="478" y="136" width="134" height="36" rx="7" fill="#D4A843"></rect>
  <text x="545" y="159" text-anchor="middle" font-family="system-ui, sans-serif" font-size="10.5" font-weight="600" fill="#2A2D34" letter-spacing=".03em">PMR · 2 empl.</text>

  
  <rect x="34" y="186" width="94" height="148" rx="10" fill="#6B1D3A" fill-opacity=".65"></rect>
  <text x="81" y="268" text-anchor="middle" transform="rotate(-90,81,268)" font-family="system-ui, sans-serif" font-size="14" font-weight="600" fill="#F5F0E8" letter-spacing=".06em">LOGES</text>

  
  <rect x="632" y="186" width="94" height="148" rx="10" fill="#6B1D3A" fill-opacity=".65"></rect>
  <text x="679" y="268" text-anchor="middle" transform="rotate(90,679,268)" font-family="system-ui, sans-serif" font-size="14" font-weight="600" fill="#F5F0E8" letter-spacing=".06em">LOGES</text>

  
  <rect x="148" y="186" width="464" height="148" rx="10" fill="#F5F0E8" fill-opacity=".12"></rect>
  <text x="380" y="256" text-anchor="middle" font-family="system-ui, sans-serif" font-size="14" font-weight="600" fill="#F5F0E8" letter-spacing=".06em">FOSSE</text>
  <text x="380" y="274" text-anchor="middle" font-family="system-ui, sans-serif" font-size="10" fill="#F5F0E8" opacity=".72" letter-spacing=".02em">placement libre · 70 places</text>

  
  <rect x="92" y="350" width="576" height="82" rx="10" fill="#D4A843" fill-opacity=".38"></rect>
  <text x="380" y="386" text-anchor="middle" font-family="system-ui, sans-serif" font-size="14" font-weight="600" fill="#F5F0E8" letter-spacing=".06em">BALCON</text>
  <text x="380" y="404" text-anchor="middle" font-family="system-ui, sans-serif" font-size="10" fill="#F5F0E8" opacity=".72" letter-spacing=".02em">sièges numérotés · 36 places</text>

  
  <line x1="60" y1="445" x2="700" y2="445" stroke="#D4A843" stroke-opacity=".18" stroke-width="1"></line>

  <rect x="34" y="453" width="11" height="11" rx="3" fill="#F5F0E8" fill-opacity=".12"></rect>
  <text x="51" y="463" font-family="system-ui, sans-serif" font-size="10.5" font-weight="600" fill="#F5F0E8" letter-spacing=".03em">Fosse</text>

  <rect x="160" y="453" width="11" height="11" rx="3" fill="#D4A843" fill-opacity=".38"></rect>
  <text x="177" y="463" font-family="system-ui, sans-serif" font-size="10.5" font-weight="600" fill="#F5F0E8" letter-spacing=".03em">Balcon</text>

  <rect x="300" y="453" width="11" height="11" rx="3" fill="#6B1D3A" fill-opacity=".65"></rect>
  <text x="317" y="463" font-family="system-ui, sans-serif" font-size="10.5" font-weight="600" fill="#F5F0E8" letter-spacing=".03em">Loges</text>

  <rect x="430" y="453" width="11" height="11" rx="3" fill="#D4A843"></rect>
  <text x="447" y="463" font-family="system-ui, sans-serif" font-size="10.5" font-weight="600" fill="#F5F0E8" letter-spacing=".03em">Espaces PMR</text>

  <rect x="590" y="453" width="11" height="11" rx="3" fill="#6B1D3A"></rect>
  <text x="607" y="463" font-family="system-ui, sans-serif" font-size="10.5" font-weight="600" fill="#F5F0E8" letter-spacing=".03em">Scène</text>

</svg>